<svg viewBox="0 0 415 541" xmlns="http://www.w3.org/2000/svg">
  <!-- Background -->
  <rect width="415" height="541" fill="#f8f9fa" />
  
  <!-- Table Header Row -->
  <rect x="0" y="0" width="115" height="30" fill="#E8EEF4" stroke="#ccc" stroke-width="1" />

  <rect x="70" y="0" width="115" height="30" fill="#E8EEF4" stroke="#ccc" stroke-width="1" />
  <text x="127" y="20" font-family="Arial, sans-serif" font-size="12" font-weight="bold" text-anchor="middle" fill="#333">DAY 1 (금)</text>
  
  <rect x="185" y="0" width="115" height="30" fill="#E8EEF4" stroke="#ccc" stroke-width="1" />
  <text x="242" y="20" font-family="Arial, sans-serif" font-size="12" font-weight="bold" text-anchor="middle" fill="#333">DAY 2 (토)</text>
  
  <rect x="300" y="0" width="115" height="30" fill="#E8EEF4" stroke="#ccc" stroke-width="1" />
  <text x="357" y="20" font-family="Arial, sans-serif" font-size="12" font-weight="bold" text-anchor="middle" fill="#333">DAY 3 (주일)</text>
  
  <!-- Time Slots - With more detailed times -->
  <rect x="0" y="30" width="70" height="15" fill="#E8EEF4" stroke="#ccc" stroke-width="1" />
  <text x="35" y="41" font-family="Arial, sans-serif" font-size="9" text-anchor="middle" fill="#333">8:00 AM</text>

  <rect x="0" y="45" width="70" height="15" fill="#E8EEF4" stroke="#ccc" stroke-width="1" />
  <text x="35" y="56" font-family="Arial, sans-serif" font-size="9" text-anchor="middle" fill="#333">8:30 AM</text>

  <rect x="0" y="60" width="70" height="15" fill="#E8EEF4" stroke="#ccc" stroke-width="1" />
  <text x="35" y="71" font-family="Arial, sans-serif" font-size="9" text-anchor="middle" fill="#333">9:00 AM</text>

  <rect x="0" y="75" width="70" height="15" fill="#E8EEF4" stroke="#ccc" stroke-width="1" />
  <text x="35" y="86" font-family="Arial, sans-serif" font-size="9" text-anchor="middle" fill="#333">9:30 AM</text>
  
  <rect x="0" y="90" width="70" height="15" fill="#E8EEF4" stroke="#ccc" stroke-width="1" />
  <text x="35" y="101" font-family="Arial, sans-serif" font-size="9" text-anchor="middle" fill="#333">10:00 AM</text>
  
  <rect x="0" y="105" width="70" height="15" fill="#E8EEF4" stroke="#ccc" stroke-width="1" />
  <text x="35" y="116" font-family="Arial, sans-serif" font-size="9" text-anchor="middle" fill="#333">10:30 AM</text>
  
  <rect x="0" y="120" width="70" height="15" fill="#E8EEF4" stroke="#ccc" stroke-width="1" />
  <text x="35" y="131" font-family="Arial, sans-serif" font-size="9" text-anchor="middle" fill="#333">11:00 AM</text>
  
  <rect x="0" y="135" width="70" height="15" fill="#E8EEF4" stroke="#ccc" stroke-width="1" />
  <text x="35" y="146" font-family="Arial, sans-serif" font-size="9" text-anchor="middle" fill="#333">11:30 AM</text>
  
  <rect x="0" y="150" width="70" height="15" fill="#E8EEF4" stroke="#ccc" stroke-width="1" />
  <text x="35" y="161" font-family="Arial, sans-serif" font-size="9" text-anchor="middle" fill="#333">12:00 PM</text>
  
  <rect x="0" y="165" width="70" height="15" fill="#E8EEF4" stroke="#ccc" stroke-width="1" />
  <text x="35" y="176" font-family="Arial, sans-serif" font-size="9" text-anchor="middle" fill="#333">12:30 PM</text>
  
  <rect x="0" y="180" width="70" height="15" fill="#E8EEF4" stroke="#ccc" stroke-width="1" />
  <text x="35" y="191" font-family="Arial, sans-serif" font-size="9" text-anchor="middle" fill="#333">1:00 PM</text>
  
  <rect x="0" y="195" width="70" height="15" fill="#E8EEF4" stroke="#ccc" stroke-width="1" />
  <text x="35" y="206" font-family="Arial, sans-serif" font-size="9" text-anchor="middle" fill="#333">1:30 PM</text>
  
  <rect x="0" y="210" width="70" height="15" fill="#E8EEF4" stroke="#ccc" stroke-width="1" />
  <text x="35" y="221" font-family="Arial, sans-serif" font-size="9" text-anchor="middle" fill="#333">2:00 PM</text>
  
  <rect x="0" y="225" width="70" height="15" fill="#E8EEF4" stroke="#ccc" stroke-width="1" />
  <text x="35" y="236" font-family="Arial, sans-serif" font-size="9" text-anchor="middle" fill="#333">2:30 PM</text>
  
  <rect x="0" y="240" width="70" height="15" fill="#E8EEF4" stroke="#ccc" stroke-width="1" />
  <text x="35" y="251" font-family="Arial, sans-serif" font-size="9" text-anchor="middle" fill="#333">3:00 PM</text>
  
  <rect x="0" y="255" width="70" height="15" fill="#E8EEF4" stroke="#ccc" stroke-width="1" />
  <text x="35" y="266" font-family="Arial, sans-serif" font-size="9" text-anchor="middle" fill="#333">3:30 PM</text>
  
  <rect x="0" y="270" width="70" height="15" fill="#E8EEF4" stroke="#ccc" stroke-width="1" />
  <text x="35" y="281" font-family="Arial, sans-serif" font-size="9" text-anchor="middle" fill="#333">4:00 PM</text>
  
  <rect x="0" y="285" width="70" height="15" fill="#E8EEF4" stroke="#ccc" stroke-width="1" />
  <text x="35" y="296" font-family="Arial, sans-serif" font-size="9" text-anchor="middle" fill="#333">4:30 PM</text>
  
  <rect x="0" y="300" width="70" height="15" fill="#E8EEF4" stroke="#ccc" stroke-width="1" />
  <text x="35" y="311" font-family="Arial, sans-serif" font-size="9" text-anchor="middle" fill="#333">5:00 PM</text>
  
  <rect x="0" y="315" width="70" height="15" fill="#E8EEF4" stroke="#ccc" stroke-width="1" />
  <text x="35" y="326" font-family="Arial, sans-serif" font-size="9" text-anchor="middle" fill="#333">5:30 PM</text>
  
  <rect x="0" y="330" width="70" height="15" fill="#E8EEF4" stroke="#ccc" stroke-width="1" />
  <text x="35" y="341" font-family="Arial, sans-serif" font-size="9" text-anchor="middle" fill="#333">6:00 PM</text>
  
  <rect x="0" y="345" width="70" height="15" fill="#E8EEF4" stroke="#ccc" stroke-width="1" />
  <text x="35" y="356" font-family="Arial, sans-serif" font-size="9" text-anchor="middle" fill="#333">6:30 PM</text>
  
  <rect x="0" y="360" width="70" height="15" fill="#E8EEF4" stroke="#ccc" stroke-width="1" />
  <text x="35" y="371" font-family="Arial, sans-serif" font-size="9" text-anchor="middle" fill="#333">7:00 PM</text>
  
  <rect x="0" y="375" width="70" height="15" fill="#E8EEF4" stroke="#ccc" stroke-width="1" />
  <text x="35" y="386" font-family="Arial, sans-serif" font-size="9" text-anchor="middle" fill="#333">7:30 PM</text>
  
  <rect x="0" y="390" width="70" height="15" fill="#E8EEF4" stroke="#ccc" stroke-width="1" />
  <text x="35" y="401" font-family="Arial, sans-serif" font-size="9" text-anchor="middle" fill="#333">8:00 PM</text>
  
  <rect x="0" y="405" width="70" height="15" fill="#E8EEF4" stroke="#ccc" stroke-width="1" />
  <text x="35" y="416" font-family="Arial, sans-serif" font-size="9" text-anchor="middle" fill="#333">8:30 PM</text>
  
  <rect x="0" y="420" width="70" height="15" fill="#E8EEF4" stroke="#ccc" stroke-width="1" />
  <text x="35" y="431" font-family="Arial, sans-serif" font-size="9" text-anchor="middle" fill="#333">9:00 PM</text>

  <rect x="0" y="435" width="70" height="15" fill="#E8EEF4" stroke="#ccc" stroke-width="1" />
  <text x="35" y="446" font-family="Arial, sans-serif" font-size="9" text-anchor="middle" fill="#333">9:30 PM</text>

  <rect x="0" y="450" width="70" height="15" fill="#E8EEF4" stroke="#ccc" stroke-width="1" />
  <text x="35" y="461" font-family="Arial, sans-serif" font-size="9" text-anchor="middle" fill="#333">10:00 PM</text>

  <rect x="0" y="465" width="70" height="15" fill="#E8EEF4" stroke="#ccc" stroke-width="1" />
  <text x="35" y="476" font-family="Arial, sans-serif" font-size="9" text-anchor="middle" fill="#333">10:30 PM</text>

  <rect x="0" y="480" width="70" height="15" fill="#E8EEF4" stroke="#ccc" stroke-width="1" />
  <text x="35" y="491" font-family="Arial, sans-serif" font-size="9" text-anchor="middle" fill="#333">11:00 PM</text>
  
  <rect x="0" y="495" width="70" height="15" fill="#E8EEF4" stroke="#ccc" stroke-width="1" />
  <text x="35" y="506" font-family="Arial, sans-serif" font-size="9" text-anchor="middle" fill="#333">11:30 PM</text>

  <rect x="0" y="510" width="70" height="15" fill="#E8EEF4" stroke="#ccc" stroke-width="1" />
  <text x="35" y="521" font-family="Arial, sans-serif" font-size="9" text-anchor="middle" fill="#333">12:00 AM</text>
  
  <!-- Day 1 Schedule Content -->
  <!-- Empty space until 1:00 PM -->
  
  <!-- 선발대 출발 (3:00 PM - 5:30 PM) -->
  <rect x="70" y="180" width="115" height="120" fill="#d9d9d9" stroke="#ccc" stroke-width="1" />
  <text x="127" y="245" font-family="Arial, sans-serif" font-size="10" text-anchor="middle" fill="#333">선발대 출발</text>
  
  <!-- 본대 출발 + 안내/접수 -->
  <rect x="70" y="300" width="115" height="60" fill="#d9d9d9" stroke="#ccc" stroke-width="1" />
  <text x="127" y="335" font-family="Arial, sans-serif" font-size="10" text-anchor="middle" fill="#333">본대 출발 + 안내/접수</text>
  
  <!-- 저녁 식사 -->
  <rect x="70" y="360" width="115" height="30" fill="#d9d9d9" stroke="#ccc" stroke-width="1" />
  <text x="127" y="380" font-family="Arial, sans-serif" font-size="10" text-anchor="middle" fill="#333">저녁 식사</text>
  
  <rect x="70" y="390" width="115" height="15" fill="#d9d9d9" stroke="#ccc" stroke-width="1" />
  <text x="127" y="402" font-family="Arial, sans-serif" font-size="10" text-anchor="middle" fill="#333">오리엔테이션</text>

  <!-- 집회 1일차 -->
  <rect x="70" y="405" width="115" height="105" fill="#d9d9d9" stroke="#ccc" stroke-width="1" />
  <text x="127" y="445" font-family="Arial, sans-serif" font-size="10" text-anchor="middle" fill="#333">저녁 집회 1일차</text>

  <rect x="70" y="495" width="115" height="15" fill="#d9d9d9" stroke="#ccc" stroke-width="1" />
  <text x="127" y="507" font-family="Arial, sans-serif" font-size="10" text-anchor="middle" fill="#333">조 모임</text>

  <rect x="70" y="510" width="115" height="15" fill="#d9d9d9" stroke="#ccc" stroke-width="1" />
  <text x="127" y="522" font-family="Arial, sans-serif" font-size="10" text-anchor="middle" fill="#333">취침</text>
  
  <!-- Day 2 Schedule Content -->
  <!-- 기상 + 아침 식사 -->
  <rect x="185" y="30" width="115" height="45" fill="#d9d9d9" stroke="#ccc" stroke-width="1" />
  <text x="245" y="57" font-family="Arial, sans-serif" font-size="10" text-anchor="middle" fill="#333">기상 + 아침 식사</text>
  
  <!-- QT 모임 -->
  <rect x="185" y="75" width="115" height="30" fill="#d9d9d9" stroke="#ccc" stroke-width="1" />
  <text x="245" y="95" font-family="Arial, sans-serif" font-size="10" text-anchor="middle" fill="#333">QT 모임</text>
  
  <!-- 골든벨 -->
  <rect x="185" y="105" width="115" height="45" fill="#d9d9d9" stroke="#ccc" stroke-width="1" />
  <text x="245" y="130" font-family="Arial, sans-serif" font-size="10" text-anchor="middle" fill="#333">단체 활동 (???)</text>
  
  <!-- 휴식 시간 + 점심 식사 -->
  <rect x="185" y="150" width="115" height="60" fill="#d9d9d9" stroke="#ccc" stroke-width="1" />
  <text x="245" y="175" font-family="Arial, sans-serif" font-size="10" text-anchor="middle" fill="#333">휴식 시간 +</text>
  <text x="245" y="190" font-family="Arial, sans-serif" font-size="10" text-anchor="middle" fill="#333">점심 식사</text>
  
  <!-- 레크레이션 자택실 -->
  <rect x="185" y="210" width="115" height="120" fill="#d9d9d9" stroke="#ccc" stroke-width="1" />
  <text x="245" y="260" font-family="Arial, sans-serif" font-size="10" text-anchor="middle" fill="#333">레크레이션</text>
  <text x="245" y="280" font-family="Arial, sans-serif" font-size="10" text-anchor="middle" fill="#333">(???)</text>
  
  <!-- 저녁 식사 -->
  <rect x="185" y="330" width="115" height="45" fill="#d9d9d9" stroke="#ccc" stroke-width="1" />
  <text x="245" y="355" font-family="Arial, sans-serif" font-size="10" text-anchor="middle" fill="#333">저녁 식사</text>
  
  <!-- 휴식 + 집회 준비 -->
  <rect x="185" y="375" width="115" height="15" fill="#d9d9d9" stroke="#ccc" stroke-width="1" />
  <text x="245" y="386" font-family="Arial, sans-serif" font-size="10" text-anchor="middle" fill="#333">휴식 + 집회 준비</text>
  
  <!-- 지역 답사 2일차 -->
  <rect x="185" y="390" width="115" height="90" fill="#d9d9d9" stroke="#ccc" stroke-width="1" />
  <text x="245" y="440" font-family="Arial, sans-serif" font-size="10" text-anchor="middle" fill="#333">저녁 집회 2일차</text>

  <rect x="185" y="475" width="115" height="35" fill="#d9d9d9" stroke="#ccc" stroke-width="1" />
  <text x="245" y="497" font-family="Arial, sans-serif" font-size="10" text-anchor="middle" fill="#333">조 모임</text>

  <rect x="185" y="510" width="115" height="15" fill="#d9d9d9" stroke="#ccc" stroke-width="1" />
  <text x="245" y="522" font-family="Arial, sans-serif" font-size="10" text-anchor="middle" fill="#333">취침</text>
  
  <!-- Day 3 Schedule Content -->
  <!-- 기상 + 아침 식사 -->
  <rect x="300" y="30" width="115" height="45" fill="#d9d9d9" stroke="#ccc" stroke-width="1" />
  <text x="357" y="57" font-family="Arial, sans-serif" font-size="10" text-anchor="middle" fill="#333">기상 + 아침 식사</text>
  
  <!-- Self Reflection & 찬종 -->
  <rect x="300" y="75" width="115" height="30" fill="#d9d9d9" stroke="#ccc" stroke-width="1" />
  <text x="357" y="95" font-family="Arial, sans-serif" font-size="10" text-anchor="middle" fill="#333">Self Reflection &amp; 간증</text>
  
  <!-- 성찬 + 종아잠 준비 -->
  <rect x="300" y="105" width="115" height="15" fill="#d9d9d9" stroke="#ccc" stroke-width="1" />
  <text x="357" y="117" font-family="Arial, sans-serif" font-size="10" text-anchor="middle" fill="#333">정리 + 돌아갈 준비</text>
  
  <!-- 교회로 복귀 -->
  <rect x="300" y="120" width="115" height="90" fill="#d9d9d9" stroke="#ccc" stroke-width="1" />
  <text x="357" y="168" font-family="Arial, sans-serif" font-size="10" text-anchor="middle" fill="#333">교회로 귀가</text>
  
  <!-- 주일 예배 -->
  <rect x="300" y="210" width="115" height="60" fill="#d9d9d9" stroke="#ccc" stroke-width="1" />
  <text x="357" y="245" font-family="Arial, sans-serif" font-size="10" text-anchor="middle" fill="#333">주일 예배</text>
</svg>